<mxfile host="app.diagrams.net" agent="Mozilla/5.0 (Windows NT 10.0; Win64; x64) AppleWebKit/537.36 (KHTML, like Gecko) Chrome/130.0.0.0 Safari/537.36" version="24.8.3">
  <diagram name="Page-1" id="74e2e168-ea6b-b213-b513-2b3c1d86103e">
    <mxGraphModel dx="2630" dy="936" grid="1" gridSize="10" guides="1" tooltips="1" connect="1" arrows="1" fold="1" page="1" pageScale="1" pageWidth="1100" pageHeight="850" background="none" math="0" shadow="0">
      <root>
        <mxCell id="0" />
        <mxCell id="1" parent="0" />
        <mxCell id="77e6c97f196da883-1" value="Testes no Ciclo de Vida de Desenvolvimento de Software (SDLC)" style="swimlane;html=1;childLayout=stackLayout;startSize=20;rounded=0;shadow=0;labelBackgroundColor=none;strokeWidth=1;fontFamily=Verdana;fontSize=8;align=center;" parent="1" vertex="1">
          <mxGeometry x="70" y="40" width="2230" height="750" as="geometry" />
        </mxCell>
        <mxCell id="77e6c97f196da883-2" value="Refinamento / Planning" style="swimlane;html=1;startSize=20;" parent="77e6c97f196da883-1" vertex="1">
          <mxGeometry y="20" width="740" height="730" as="geometry" />
        </mxCell>
        <mxCell id="rSFsk-fasPT_X7yhRa_L-2" value="" style="sketch=0;html=1;aspect=fixed;strokeColor=none;shadow=0;fillColor=#3B8DF1;verticalAlign=top;labelPosition=center;verticalLabelPosition=bottom;shape=mxgraph.gcp2.view_list" vertex="1" parent="77e6c97f196da883-2">
          <mxGeometry x="60" y="80" width="48.6" height="60" as="geometry" />
        </mxCell>
        <mxCell id="77e6c97f196da883-3" value="Desenvolvimento" style="swimlane;html=1;startSize=20;" parent="77e6c97f196da883-1" vertex="1">
          <mxGeometry x="740" y="20" width="260" height="730" as="geometry" />
        </mxCell>
        <mxCell id="77e6c97f196da883-4" value="Code Review" style="swimlane;html=1;startSize=20;" parent="77e6c97f196da883-1" vertex="1">
          <mxGeometry x="1000" y="20" width="290" height="730" as="geometry" />
        </mxCell>
        <mxCell id="77e6c97f196da883-5" value="Teste (Sprint)" style="swimlane;html=1;startSize=20;" parent="77e6c97f196da883-1" vertex="1">
          <mxGeometry x="1290" y="20" width="280" height="730" as="geometry" />
        </mxCell>
        <mxCell id="77e6c97f196da883-6" value="Homologação (Release)" style="swimlane;html=1;startSize=20;" parent="77e6c97f196da883-1" vertex="1">
          <mxGeometry x="1570" y="20" width="240" height="730" as="geometry" />
        </mxCell>
        <mxCell id="77e6c97f196da883-7" value="Produção" style="swimlane;html=1;startSize=20;" parent="77e6c97f196da883-1" vertex="1">
          <mxGeometry x="1810" y="20" width="420" height="730" as="geometry" />
        </mxCell>
      </root>
    </mxGraphModel>
  </diagram>
</mxfile>
